<svg id="_x31__px" height="512" viewBox="0 0 24 24" width="512" xmlns="http://www.w3.org/2000/svg"><path d="m12 9.5c-.276 0-.5-.224-.5-.5v-8.457c0-.276.224-.5.5-.5s.5.224.5.5v8.457c0 .276-.224.5-.5.5z"/><path d="m17.5 14c-.111 0-.224-.037-.316-.113l-5.184-4.241-5.184 4.241c-.213.173-.528.143-.703-.071-.175-.213-.144-.528.07-.704l5.5-4.5c.184-.15.449-.15.633 0l5.5 4.5c.214.175.245.49.07.704-.098.122-.241.184-.386.184z"/><path d="m21.507 24c-.244 0-.49-.036-.731-.109l-3.578-1.089c-1.913-.582-3.198-2.324-3.198-4.335v-9.95c0-.864.433-1.658 1.158-2.122.72-.458 1.609-.521 2.386-.164 3.922 1.813 6.456 5.79 6.456 10.134v5.12c0 .807-.371 1.544-1.017 2.023-.438.325-.952.492-1.476.492zm-.441-1.066c.453.138.936.056 1.321-.229.389-.288.613-.733.613-1.22v-5.12c0-3.955-2.307-7.577-5.876-9.226-.468-.217-.988-.181-1.427.098-.436.28-.697.758-.697 1.28v9.951c0 1.567 1 2.925 2.488 3.377z"/><path d="m2.493 24c-.524 0-1.038-.168-1.477-.492-.645-.479-1.016-1.216-1.016-2.023v-5.12c0-4.344 2.534-8.321 6.456-10.134.777-.357 1.667-.294 2.386.164.725.464 1.158 1.257 1.158 2.122v9.951c0 2.011-1.285 3.752-3.197 4.334l-3.578 1.089c-.242.073-.488.109-.732.109zm.586-.587h.01zm4.425-16.414c-.212 0-.425.046-.628.141-3.569 1.649-5.876 5.27-5.876 9.225v5.12c0 .487.224.932.612 1.22.385.285.866.367 1.321.229l3.578-1.089c1.489-.453 2.489-1.81 2.489-3.378v-9.95c0-.521-.261-1-.697-1.279-.248-.159-.523-.239-.799-.239z"/><path d="m5.501 19c-.033 0-.066-.003-.099-.01-.271-.054-.447-.317-.393-.588l.947-4.737-1.811-1.811c-.195-.195-.195-.512 0-.707s.512-.195.707 0l2 2c.118.118.17.288.137.452l-1 5c-.047.237-.255.401-.488.401z"/><path d="m3.5 16c-.161 0-.319-.078-.416-.223-.153-.23-.091-.54.139-.693l3-2c.228-.153.538-.092.693.139.153.23.091.54-.139.693l-3 2c-.085.057-.181.084-.277.084z"/><path d="m18.499 19c-.233 0-.441-.164-.489-.402l-1-5c-.033-.164.019-.333.137-.452l2-2c.195-.195.512-.195.707 0s.195.512 0 .707l-1.811 1.811.947 4.737c.055.271-.121.534-.393.588-.032.008-.065.011-.098.011z"/><path d="m20.5 16c-.096 0-.192-.027-.277-.084l-3-2c-.229-.153-.292-.463-.139-.693.154-.23.466-.291.693-.139l3 2c.229.153.292.463.139.693-.097.145-.255.223-.416.223z"/></svg>