<svg width="97" height="120" viewBox="0 0 97 120" fill="none" xmlns="http://www.w3.org/2000/svg">
<path fill-rule="evenodd" clip-rule="evenodd" d="M42.869 68.4184C36.7462 61.2314 32.6021 52.4237 33.2946 42.5544C35.2898 14.1181 74.8741 20.3737 82.574 34.7259C90.274 49.0781 89.359 85.4836 79.4075 88.0487C75.4389 89.0717 66.9845 86.5658 58.3799 81.3795L63.7808 119.589H31.8904L42.869 68.4184Z" fill="#B28B67"/>
<path fill-rule="evenodd" clip-rule="evenodd" d="M96.702 14.8296C96.0416 12.5084 94.2653 10.5209 91.8715 9.93122C91.291 9.7882 90.6915 9.73043 90.0942 9.75452C89.8799 9.76307 89.8198 9.82485 89.7197 9.67502C89.6454 9.56393 89.6438 9.29255 89.6132 9.162C89.5181 8.75606 89.3991 8.35517 89.2523 7.96467C88.7514 6.63278 87.9097 5.45403 86.895 4.46107C84.9971 2.60342 82.4326 1.32136 79.7683 1.08941C78.3101 0.962535 76.8625 1.19945 75.4839 1.67381C74.7702 1.91937 74.0781 2.22514 73.404 2.5632C73.2011 2.66494 72.5426 3.1633 72.339 3.13101C72.114 3.09541 71.6619 2.53641 71.479 2.39609C69.2183 0.661566 66.4265 -0.0203928 63.6106 0.000463031C60.4322 0.0239366 57.3716 0.182755 54.7207 2.12034C54.1596 2.53056 53.6252 2.9797 53.1163 3.45258C52.8484 3.70154 52.5888 3.95983 52.3413 4.22887C52.1919 4.39117 52.0465 4.55715 51.9066 4.72757C51.669 5.01685 51.7071 5.11188 51.3746 4.91004C50.0988 4.13497 48.6205 3.77248 47.1314 3.95547C46.2473 4.0642 45.387 4.32966 44.5701 4.67906C44.292 4.79799 43.6483 5.27244 43.3519 5.27707C43.0578 5.2816 42.4231 4.8418 42.1202 4.73001C40.4841 4.12607 38.7208 3.9772 37.0012 4.25627C35.2274 4.54423 33.4849 5.25194 31.982 6.22989C31.2592 6.70032 30.6285 7.22154 30.1219 7.92104C29.9032 8.22305 29.7055 8.54252 29.4576 8.82255C29.3125 8.98652 29.0251 9.15476 28.9472 9.36227C28.9938 9.23801 27.0073 8.47219 26.8198 8.42324C25.8211 8.16241 24.8043 8.21529 23.8263 8.53711C21.9874 9.14228 20.406 10.4994 19.1062 11.8908C18.4387 12.6055 17.8545 13.3955 17.3586 14.2371C17.121 14.6403 16.9036 15.0549 16.7048 15.4784C16.6084 15.6836 16.5446 15.9402 16.4177 16.125C16.254 16.3632 16.1441 16.3677 15.8478 16.4716C14.3428 16.9988 12.9709 17.8912 11.9261 19.0971C10.8693 20.3171 10.1836 21.8195 9.89615 23.4017C9.87925 23.4949 9.86917 23.8811 9.8146 23.9316C9.73979 24.001 9.43715 23.9703 9.32266 23.9837C8.92621 24.0303 8.53255 24.0995 8.14415 24.1914C7.42815 24.3609 6.73123 24.6103 6.07199 24.9365C3.50211 26.208 1.66434 28.5917 0.764912 31.274C-0.178845 34.0889 -0.162115 37.3139 0.965856 40.0763C1.14805 40.5225 1.36486 40.9556 1.6195 41.3653C1.77585 41.6168 1.82631 41.6174 1.72479 41.8812C1.61161 42.1748 1.40489 42.4601 1.27051 42.7469C0.832097 43.683 0.525601 44.6758 0.332015 45.6897C0.0143923 47.3531 -0.143019 49.101 0.170311 50.777C0.315807 51.5552 0.56931 52.3159 0.956045 53.0091C1.15322 53.3625 1.38395 53.6977 1.64446 54.0077C1.77971 54.1687 1.92336 54.3225 2.07359 54.4698C2.15952 54.5539 2.27217 54.6275 2.34523 54.7215C2.52357 54.9507 2.56106 54.7623 2.46909 55.0988C2.3405 55.5692 2.04898 56.0333 1.87046 56.4911C1.68651 56.9629 1.52025 57.4411 1.36818 57.924C1.0602 58.9018 0.799774 59.8974 0.636933 60.9101C0.324217 62.8544 0.37914 64.9261 1.29881 66.7105C1.69203 67.4738 2.25614 68.1434 2.94035 68.6643C3.27523 68.9191 3.63796 69.1387 4.01848 69.3191C4.21399 69.4119 4.46364 69.4517 4.55282 69.6408C4.64882 69.8442 4.5063 70.2479 4.4738 70.4752C4.19104 72.4528 4.04923 74.5291 4.63708 76.467C5.17851 78.252 6.3706 79.828 7.91833 80.8714C10.9208 82.8954 14.9681 82.7813 18.123 81.1609C18.9453 80.7385 19.7147 80.214 20.401 79.5954C22.1486 81.948 25.7449 81.8736 28.2991 81.2032C31.4812 80.3681 34.0347 78.1554 35.5058 75.2482C37.5175 77.697 41.7392 76.9025 43.1342 74.2459C43.4756 73.5957 43.6782 72.8791 43.7778 72.1539C43.8303 71.7726 43.7968 71.3879 43.8363 71.0096C43.8865 70.5276 44.2085 70.0592 44.3936 69.5928C44.7541 68.6853 44.9779 67.7478 44.9875 66.7689C44.9925 66.2578 44.9278 65.7597 44.8792 65.2527C44.8355 64.7964 44.962 64.3711 45.034 63.9207C44.2178 64.0551 43.2235 63.835 42.4546 63.5983C41.7001 63.3661 40.9933 62.7545 40.4608 62.1959C39.2242 60.8989 38.4687 59.1985 37.9521 57.5062C36.818 53.792 37.2829 49.3358 41.0187 47.2973C42.7591 46.3477 47.973 46.3508 50.0458 46.8201C52.2253 47.3136 54.6961 52.1228 54.8177 52.5748C54.893 52.8545 54.8551 53.2008 55.1121 53.3872C55.6769 53.7971 56.6084 53.0858 57.025 52.7347C57.7439 52.1289 58.2567 51.3227 58.7008 50.5056C59.6685 48.7254 60.4486 46.8164 60.9997 44.8676C61.4245 43.3651 61.6962 41.8157 62.2514 40.3515C62.804 38.8946 63.675 37.5924 65.0294 36.767C66.5026 35.8692 68.1914 35.3963 69.8088 34.8321C71.4119 34.2729 72.9874 33.5895 74.2301 32.4029C74.5034 32.142 74.7688 31.8648 74.9887 31.5576C75.1623 31.3151 75.3339 30.8509 75.5985 30.6971C76.0097 30.4579 76.6099 31.08 76.9656 31.3058C78.7201 32.4201 80.1839 33.9743 81.3646 35.6721C82.5386 37.3606 83.502 38.9853 84.2848 40.8708C84.8655 42.2692 85.2279 44.0601 86.2492 45.2061C86.7051 45.7178 90.0942 46.0274 91.1919 45.5807C92.2897 45.1339 93.52 43.9739 93.8884 43.2469C94.2656 42.5028 94.3557 41.6854 94.1945 40.8708C94.0998 40.3916 93.9062 39.9439 93.8003 39.4732C93.7111 39.0778 93.6301 38.7041 93.4377 38.3419C93.073 37.6555 92.4498 37.1621 91.6983 36.9558C92.4804 36.2347 93.1284 35.3721 93.5768 34.4079C94.0427 33.4061 94.4376 32.1878 94.5496 31.0883C94.6407 30.1953 94.5002 29.27 94.0113 28.5026C93.4984 27.6975 92.5899 27.1722 91.8038 26.67C93.0045 25.7306 94.0322 24.588 94.8771 23.3231C96.5201 20.8631 97.5364 17.7624 96.702 14.8296Z" fill="#191847"/>
</svg>
